<?xml version="1.0" standalone="no"?><!DOCTYPE svg PUBLIC "-//W3C//DTD SVG 1.1//EN" "http://www.w3.org/Graphics/SVG/1.1/DTD/svg11.dtd"><svg t="1764654870190" class="icon" viewBox="0 0 1024 1024" version="1.1" xmlns="http://www.w3.org/2000/svg" p-id="12155" xmlns:xlink="http://www.w3.org/1999/xlink" width="200" height="200"><path d="M894.421333 123.690667l-288 288a42.666667 42.666667 0 0 0 60.330667 60.330666l288-288a42.666667 42.666667 0 1 0-60.330667-60.330666z" fill="#ffffff" p-id="12156"></path><path d="M881.92 196.522667v245.333333a42.666667 42.666667 0 1 0 85.333333 0v-330.666667h-330.666666a42.666667 42.666667 0 1 0 0 85.333334h245.333333z" fill="#ffffff" p-id="12157"></path><path d="M127.018667 911.488l288-288a42.666667 42.666667 0 0 0-60.330667-60.330667l-288 288a42.666667 42.666667 0 1 0 60.330667 60.330667z" fill="#ffffff" p-id="12158"></path><path d="M139.52 838.656v-245.333333a42.666667 42.666667 0 1 0-85.333333 0v330.666666h330.666666a42.666667 42.666667 0 1 0 0-85.333333H139.52z" fill="#ffffff" p-id="12159"></path></svg>